0
SECTION
2
HEADER
9
$INSUNITS
70
4
9
$ACADVER
1
AC1014
9
$HANDSEED
5
FFFF
0
ENDSEC
0
SECTION
2
TABLES
0
TABLE
2
VPORT
5
8
100
AcDbSymbolTable
0
ENDTAB
0
TABLE
2
LTYPE
5
5
100
AcDbSymbolTable
0
LTYPE
5
14
100
AcDbSymbolTableRecord
100
AcDbLinetypeTableRecord
2
BYBLOCK
70
0
0
LTYPE
5
15
100
AcDbSymbolTableRecord
100
AcDbLinetypeTableRecord
2
BYLAYER
70
0
0
ENDTAB
0
TABLE
2
LAYER
5
2
100
AcDbSymbolTable
70
2
0
LAYER
5
50
100
AcDbSymbolTableRecord
100
AcDbLayerTableRecord
2
0
70
0
6
CONTINUOUS
0
ENDTAB
0
TABLE
2
STYLE
5
3
100
AcDbSymbolTable
70
1
0
STYLE
5
11
100
AcDbSymbolTableRecord
100
AcDbTextStyleTableRecord
2
STANDARD
70
0
0
ENDTAB
0
TABLE
2
VIEW
5
6
100
AcDbSymbolTable
70
0
0
ENDTAB
0
TABLE
2
UCS
5
7
100
AcDbSymbolTable
70
0
0
ENDTAB
0
TABLE
2
APPID
5
9
100
AcDbSymbolTable
70
2
0
APPID
5
12
100
AcDbSymbolTableRecord
100
AcDbRegAppTableRecord
2
ACAD
70
0
0
ENDTAB
0
TABLE
2
DIMSTYLE
5
A
100
AcDbSymbolTable
70
1
0
ENDTAB
0
TABLE
2
BLOCK_RECORD
5
1
100
AcDbSymbolTable
70
1
0
BLOCK_RECORD
5
1F
100
AcDbSymbolTableRecord
100
AcDbBlockTableRecord
2
*MODEL_SPACE
0
BLOCK_RECORD
5
1B
100
AcDbSymbolTableRecord
100
AcDbBlockTableRecord
2
*PAPER_SPACE
0
ENDTAB
0
ENDSEC
0
SECTION
2
BLOCKS
0
BLOCK
5
20
100
AcDbEntity
100
AcDbBlockBegin
2
*MODEL_SPACE
0
ENDBLK
5
21
100
AcDbEntity
100
AcDbBlockEnd
0
BLOCK
5
1C
100
AcDbEntity
100
AcDbBlockBegin
2
*PAPER_SPACE
0
ENDBLK
5
1D
100
AcDbEntity
100
AcDbBlockEnd
0
ENDSEC
0
SECTION
2
ENTITIES
0
CIRCLE
5
100
100
AcDbEntity
8
0
100
AcDbCircle
10
-52.735026918962561
20
8.6602540378444672
30
0
40
1.6000000000000014
210
0
220
0
230
1
0
CIRCLE
5
101
100
AcDbEntity
8
0
100
AcDbCircle
10
18.867513459481376
20
49.999999999999957
30
0
40
1.6000000000000014
210
0
220
0
230
1
0
CIRCLE
5
102
100
AcDbEntity
8
0
100
AcDbCircle
10
33.867513459481174
20
-41.339745962155675
30
0
40
1.6000000000000014
210
0
220
0
230
1
0
CIRCLE
5
103
100
AcDbEntity
8
0
100
AcDbCircle
10
18.867513459481202
20
-50.000000000000036
30
0
40
1.6000000000000014
210
0
220
0
230
1
0
CIRCLE
5
104
100
AcDbEntity
8
0
100
AcDbCircle
10
-52.735026918962589
20
-8.6602540378442789
30
0
40
1.6000000000000014
210
0
220
0
230
1
0
CIRCLE
5
105
100
AcDbEntity
8
0
100
AcDbCircle
10
28.867513459481195
20
-50.000000000000078
30
0
40
7.0000000000000018
210
0
220
0
230
1
0
CIRCLE
5
106
100
AcDbEntity
8
0
100
AcDbCircle
10
-57.735026918962618
20
1.0408340855860843e-13
30
0
40
7.0000000000000018
210
0
220
0
230
1
0
CIRCLE
5
107
100
AcDbEntity
8
0
100
AcDbCircle
10
33.867513459481337
20
41.339745962155575
30
0
40
1.6000000000000014
210
0
220
0
230
1
0
CIRCLE
5
108
100
AcDbEntity
8
0
100
AcDbCircle
10
28.867513459481376
20
49.999999999999964
30
0
40
7.0000000000000018
210
0
220
0
230
1
0
LINE
5
109
100
AcDbEntity
8
0
100
AcDbLine
10
34.352341016782773
20
59.499999999999957
30
0
11
-34.352341016782745
21
59.499999999999957
31
0
0
LINE
5
110
100
AcDbEntity
8
0
100
AcDbLine
10
-34.352341016782745
20
59.499999999999957
30
0
11
-68.704682033565433
21
-2.6645352591003757e-14
31
0
0
LINE
5
111
100
AcDbEntity
8
0
100
AcDbLine
10
-68.704682033565447
20
-2.6645352591003757e-14
30
0
11
-34.352341016782681
21
-59.500000000000071
31
0
0
LINE
5
112
100
AcDbEntity
8
0
100
AcDbLine
10
-34.352341016782681
20
-59.500000000000071
30
0
11
34.352341016782702
21
-59.500000000000057
31
0
0
LINE
5
113
100
AcDbEntity
8
0
100
AcDbLine
10
34.352341016782702
20
-59.500000000000057
30
0
11
68.70468203356549
21
8.8817841970012523e-15
31
0
0
LINE
5
114
100
AcDbEntity
8
0
100
AcDbLine
10
68.70468203356549
20
8.8817841970012523e-15
30
0
11
59.028511525174181
21
16.75961894323332
31
0
0
LINE
5
115
100
AcDbEntity
8
0
100
AcDbLine
10
40.368257487329757
20
29.080127018922177
30
0
11
49.028511525174181
21
34.080127018922134
31
0
0
LINE
5
116
100
AcDbEntity
8
0
100
AcDbLine
10
59.028511525174181
20
16.75961894323332
30
0
11
50.368257487329771
21
11.759618943233363
31
0
0
LINE
5
117
100
AcDbEntity
8
0
100
AcDbLine
10
50.368257487329771
20
11.759618943233363
30
0
11
40.368257487329757
21
29.080127018922177
31
0
0
LINE
5
118
100
AcDbEntity
8
0
100
AcDbLine
10
49.028511525174181
20
34.080127018922134
30
0
11
34.352341016782773
21
59.499999999999957
31
0
0
LWPOLYLINE
5
119
100
AcDbEntity
8
0
100
AcDbPolyline
90
6
70
1
43
0.0
10
45.610671265980436
20
2.3314683517128287e-14
10
22.805335632990204
20
39.500000000000007
10
-22.805335632990232
20
39.499999999999986
10
-45.610671265980436
20
-1.7763568394002505e-14
10
-22.805335632990214
20
-39.5
10
22.805335632990207
20
-39.499999999999993
0
LWPOLYLINE
5
120
100
AcDbEntity
8
0
100
AcDbPolyline
90
6
70
1
43
0.0
10
17.031832941093946
20
29.5
10
-17.03183294109397
20
29.499999999999989
10
-34.063665882187919
20
-1.7763568394002505e-14
10
-17.031832941093953
20
-29.500000000000007
10
17.031832941093946
20
-29.499999999999993
10
34.063665882187919
20
1.7763568394002505e-14
0
LWPOLYLINE
5
121
100
AcDbEntity
8
0
100
AcDbPolyline
90
4
70
1
43
0.0
10
-51.064409910035778
20
-22.553847577293187
10
-40.672105064622521
20
-16.553847577293187
10
-34.672105064622521
20
-26.946152422706454
10
-45.064409910035764
20
-32.946152422706476
0
ENDSEC
0
SECTION
2
OBJECTS
0
DICTIONARY
5
C
100
AcDbDictionary
3
ACAD_GROUP
350
D
3
ACAD_MLINESTYLE
350
17
0
DICTIONARY
5
D
100
AcDbDictionary
0
DICTIONARY
5
1A
330
C
100
AcDbDictionary
0
DICTIONARY
5
17
100
AcDbDictionary
0
ENDSEC
0
EOF
